<mxfile host="app.diagrams.net" modified="2022-05-26T16:51:29.977Z" agent="5.0 (Macintosh; Intel Mac OS X 10_15_7) AppleWebKit/537.36 (KHTML, like Gecko) Chrome/101.0.4951.64 Safari/537.36" etag="g04iqSgcCMZFkRjgCfUn" version="18.1.1" type="github">
  <diagram id="XL85ZpH-lZTcS-LXKkXV" name="Page-1">
    <mxGraphModel dx="1010" dy="139" grid="1" gridSize="10" guides="1" tooltips="1" connect="1" arrows="1" fold="1" page="1" pageScale="1" pageWidth="827" pageHeight="1169" math="0" shadow="0">
      <root>
        <mxCell id="0" />
        <mxCell id="1" parent="0" />
        <mxCell id="CUaEXW2MeiCxrPyKnSSO-1" value="Presentation" style="shape=folder;fontStyle=1;tabWidth=110;tabHeight=30;tabPosition=left;html=1;boundedLbl=1;labelInHeader=1;container=1;collapsible=0;recursiveResize=0;" vertex="1" parent="1">
          <mxGeometry x="30" y="1200" width="690" height="260" as="geometry" />
        </mxCell>
        <mxCell id="CUaEXW2MeiCxrPyKnSSO-5" value="Swing" style="shape=folder;fontStyle=1;tabWidth=110;tabHeight=30;tabPosition=left;html=1;boundedLbl=1;labelInHeader=1;container=1;collapsible=0;recursiveResize=0;" vertex="1" parent="CUaEXW2MeiCxrPyKnSSO-1">
          <mxGeometry x="30" y="50" width="280" height="170" as="geometry" />
        </mxCell>
        <mxCell id="CUaEXW2MeiCxrPyKnSSO-6" value="CellView" style="html=1;" vertex="1" parent="CUaEXW2MeiCxrPyKnSSO-5">
          <mxGeometry width="110" height="30" relative="1" as="geometry">
            <mxPoint x="20" y="50" as="offset" />
          </mxGeometry>
        </mxCell>
        <mxCell id="CUaEXW2MeiCxrPyKnSSO-15" value="InteractionView" style="html=1;" vertex="1" parent="CUaEXW2MeiCxrPyKnSSO-5">
          <mxGeometry width="110" height="30" relative="1" as="geometry">
            <mxPoint x="20" y="110" as="offset" />
          </mxGeometry>
        </mxCell>
        <mxCell id="CUaEXW2MeiCxrPyKnSSO-16" value="PlayerView" style="html=1;" vertex="1" parent="CUaEXW2MeiCxrPyKnSSO-5">
          <mxGeometry width="110" height="30" relative="1" as="geometry">
            <mxPoint x="150" y="50" as="offset" />
          </mxGeometry>
        </mxCell>
        <mxCell id="CUaEXW2MeiCxrPyKnSSO-18" value="GameFrame" style="html=1;" vertex="1" parent="CUaEXW2MeiCxrPyKnSSO-5">
          <mxGeometry x="150" y="110" width="110" height="30" as="geometry" />
        </mxCell>
        <mxCell id="CUaEXW2MeiCxrPyKnSSO-7" value="Text" style="shape=folder;fontStyle=1;tabWidth=110;tabHeight=30;tabPosition=left;html=1;boundedLbl=1;labelInHeader=1;container=1;collapsible=0;recursiveResize=0;" vertex="1" parent="CUaEXW2MeiCxrPyKnSSO-1">
          <mxGeometry x="370" y="50" width="270" height="170" as="geometry" />
        </mxCell>
        <mxCell id="CUaEXW2MeiCxrPyKnSSO-8" value="CellConsole" style="html=1;" vertex="1" parent="CUaEXW2MeiCxrPyKnSSO-7">
          <mxGeometry width="110" height="30" relative="1" as="geometry">
            <mxPoint x="20" y="50" as="offset" />
          </mxGeometry>
        </mxCell>
        <mxCell id="CUaEXW2MeiCxrPyKnSSO-19" value="PlayerConsole" style="html=1;" vertex="1" parent="CUaEXW2MeiCxrPyKnSSO-7">
          <mxGeometry width="110" height="30" relative="1" as="geometry">
            <mxPoint x="140" y="50" as="offset" />
          </mxGeometry>
        </mxCell>
        <mxCell id="CUaEXW2MeiCxrPyKnSSO-20" value="InteractionConsole" style="html=1;" vertex="1" parent="CUaEXW2MeiCxrPyKnSSO-7">
          <mxGeometry width="110" height="30" relative="1" as="geometry">
            <mxPoint x="20" y="110" as="offset" />
          </mxGeometry>
        </mxCell>
        <mxCell id="CUaEXW2MeiCxrPyKnSSO-21" value="GameConsole" style="html=1;" vertex="1" parent="CUaEXW2MeiCxrPyKnSSO-7">
          <mxGeometry width="110" height="30" relative="1" as="geometry">
            <mxPoint x="140" y="110" as="offset" />
          </mxGeometry>
        </mxCell>
        <mxCell id="CUaEXW2MeiCxrPyKnSSO-3" value="Domain" style="shape=folder;fontStyle=1;tabWidth=110;tabHeight=30;tabPosition=left;html=1;boundedLbl=1;labelInHeader=1;container=1;collapsible=0;recursiveResize=0;" vertex="1" parent="1">
          <mxGeometry x="30" y="1550" width="690" height="260" as="geometry" />
        </mxCell>
        <mxCell id="CUaEXW2MeiCxrPyKnSSO-4" value="Packaged element1" style="html=1;" vertex="1" parent="CUaEXW2MeiCxrPyKnSSO-3">
          <mxGeometry width="110" height="30" relative="1" as="geometry">
            <mxPoint x="560" y="60" as="offset" />
          </mxGeometry>
        </mxCell>
        <mxCell id="CUaEXW2MeiCxrPyKnSSO-9" value="Map" style="shape=folder;fontStyle=1;tabWidth=110;tabHeight=30;tabPosition=left;html=1;boundedLbl=1;labelInHeader=1;container=1;collapsible=0;recursiveResize=0;" vertex="1" parent="CUaEXW2MeiCxrPyKnSSO-3">
          <mxGeometry x="400" y="60" width="260" height="170" as="geometry" />
        </mxCell>
        <mxCell id="CUaEXW2MeiCxrPyKnSSO-10" value="Packaged element1" style="html=1;" vertex="1" parent="CUaEXW2MeiCxrPyKnSSO-9">
          <mxGeometry width="110" height="30" relative="1" as="geometry">
            <mxPoint x="20" y="50" as="offset" />
          </mxGeometry>
        </mxCell>
        <mxCell id="CUaEXW2MeiCxrPyKnSSO-11" value="Map" style="shape=folder;fontStyle=1;tabWidth=110;tabHeight=30;tabPosition=left;html=1;boundedLbl=1;labelInHeader=1;container=1;collapsible=0;recursiveResize=0;" vertex="1" parent="CUaEXW2MeiCxrPyKnSSO-3">
          <mxGeometry x="80" y="60" width="260" height="170" as="geometry" />
        </mxCell>
        <mxCell id="CUaEXW2MeiCxrPyKnSSO-12" value="Packaged element1" style="html=1;" vertex="1" parent="CUaEXW2MeiCxrPyKnSSO-11">
          <mxGeometry width="110" height="30" relative="1" as="geometry">
            <mxPoint x="20" y="50" as="offset" />
          </mxGeometry>
        </mxCell>
      </root>
    </mxGraphModel>
  </diagram>
</mxfile>
